# This file uses centimeters as units for non-parametric coordinates.

mtllib Blocking_Cabin_v001.mtl
g default
v 3.242388 8.455219 0.000000
v 3.242388 -0.645025 0.000000
v 0.000000 -0.645025 0.000000
v -3.242388 -0.645026 0.000000
v -3.242388 6.484776 -15.965173
v 3.242388 6.484776 -15.965173
v -3.242388 1.608490 -15.965173
v 3.242388 1.608490 -15.965173
v 3.242388 8.455219 -7.338193
v 3.242388 -0.645025 -7.338193
v -3.242388 -0.645026 -7.338193
v -3.242388 1.608490 -10.431735
v 3.242388 1.608490 -10.431735
v 3.242388 6.484776 -10.431733
v 0.000000 -0.645025 -7.338193
v 0.000000 1.608490 -10.431735
v 0.000000 1.608490 -15.965173
v 0.000000 6.484776 -15.965173
v 0.000000 3.672287 -7.338193
v 3.242388 3.666157 -7.338193
v 3.242388 3.660027 0.000000
v -2.037168 6.117768 -15.965173
v -2.037168 1.803967 -15.965173
v -0.000000 1.803967 -15.965173
v 0.000000 6.117768 -15.965173
v 2.037168 1.803967 -15.965173
v 2.037168 6.117768 -15.965173
v -2.037168 6.117768 -15.888442
v -2.037168 1.803967 -15.888442
v -0.000000 1.803967 -15.888442
v 0.000000 6.117768 -15.888442
v 2.037168 1.803967 -15.888442
v 2.037168 6.117768 -15.888442
v -3.242388 6.484776 15.965173
v 3.242388 6.484776 15.965173
v -3.242388 1.608490 15.965173
v 3.242388 1.608490 15.965173
v 3.242388 8.455219 7.338193
v 3.242388 -0.645025 7.338193
v -3.242388 -0.645026 7.338193
v -3.242388 1.608490 10.431735
v 3.242388 1.608490 10.431735
v 3.242388 6.484776 10.431733
v -0.000000 -0.645025 7.338193
v -0.000000 1.608490 10.431735
v -0.000000 1.608490 15.965173
v 0.000000 6.484776 15.965173
v 0.000000 3.672287 7.338193
v 3.242388 3.666157 7.338193
v -2.037168 6.117768 15.965173
v -2.037168 1.803967 15.965173
v -0.000000 1.803967 15.965173
v 0.000000 6.117768 15.965173
v 2.037168 1.803967 15.965173
v 2.037168 6.117768 15.965173
v -2.037168 6.117768 15.888442
v -2.037168 1.803967 15.888442
v -0.000000 1.803967 15.888442
v -0.000000 6.117768 15.888442
v 2.037168 1.803967 15.888442
v 2.037168 6.117768 15.888442
v -3.242388 6.484776 -10.431733
v -3.242388 8.455219 0.000000
v -3.242388 8.455219 -7.338193
v -3.242388 6.484776 10.431733
v -3.242388 8.455219 7.338193
vt 0.375000 0.500000
vt 0.375000 0.750000
vt 0.500000 0.750000
vt 0.500000 0.500000
vt 0.836200 0.000000
vt 0.836200 0.250000
vt 0.875000 0.250000
vt 0.875000 0.000000
vt 0.375000 0.750000
vt 0.375000 0.788800
vt 0.500000 0.788800
vt 0.500000 0.750000
vt 0.500000 0.790417
vt 0.375000 0.790417
vt 0.625000 0.788800
vt 0.500000 0.790417
vt 0.625000 0.790417
vt 0.625000 0.750000
vt 0.625000 0.750000
vt 0.625000 0.500000
vt 0.625000 0.790417
vt 0.750000 0.000000
vt 0.750000 0.141101
vt 0.834583 0.141101
vt 0.834583 0.000000
vt 0.500000 0.875000
vt 0.625000 0.875000
vt 0.375000 0.875000
vt 0.750000 0.250000
vt 0.834583 0.250000
vt 0.375000 0.500000
vt 0.375000 0.750000
vt 0.375000 0.500000
vt 0.500000 0.750000
vt 0.500000 0.500000
vt 0.500000 0.500000
vt 0.625000 0.750000
vt 0.625000 0.500000
vt 0.625000 0.500000
vt 0.375000 0.500000
vt 0.500000 0.500000
vt 0.500000 0.750000
vt 0.375000 0.750000
vt 0.836200 0.000000
vt 0.875000 0.000000
vt 0.875000 0.250000
vt 0.836200 0.250000
vt 0.375000 0.750000
vt 0.500000 0.750000
vt 0.500000 0.788800
vt 0.375000 0.788800
vt 0.500000 0.790417
vt 0.375000 0.790417
vt 0.625000 0.788800
vt 0.625000 0.790417
vt 0.500000 0.790417
vt 0.625000 0.750000
vt 0.625000 0.500000
vt 0.625000 0.750000
vt 0.625000 0.790417
vt 0.750000 0.000000
vt 0.834583 0.000000
vt 0.834583 0.141101
vt 0.750000 0.141101
vt 0.625000 0.875000
vt 0.500000 0.875000
vt 0.834583 0.250000
vt 0.750000 0.250000
vt 0.375000 0.500000
vt 0.375000 0.500000
vt 0.375000 0.750000
vt 0.500000 0.750000
vt 0.500000 0.500000
vt 0.500000 0.500000
vt 0.625000 0.750000
vt 0.625000 0.500000
vt 0.625000 0.500000
vt 0.000000 0.000000
vt 1.000000 0.000000
vt 0.500000 1.000000
vt 0.000000 1.000000
vt 0.000000 0.000000
vt 1.000000 0.000000
vt 0.500000 1.000000
vt 0.500000 1.000000
vt 0.000000 0.000000
vt 1.000000 0.000000
vt 0.000000 0.000000
vt 1.000000 0.000000
vt 1.000000 1.000000
vt 0.000000 1.000000
vt 0.000000 0.000000
vt 1.000000 0.000000
vt 0.500000 1.000000
vt 0.000000 0.000000
vt 1.000000 0.000000
vt 1.000000 1.000000
vn 0.000000 0.000000 1.000000
vn 0.000000 0.000000 1.000000
vn 0.000000 0.000000 1.000000
vn 0.000000 0.000000 1.000000
vn -1.000000 0.000000 0.000000
vn -1.000000 0.000000 0.000000
vn -1.000000 0.000000 0.000000
vn -1.000000 0.000000 0.000000
vn -0.000000 1.000000 0.000000
vn -0.000000 0.967535 0.252737
vn -0.000000 0.967535 0.252737
vn -0.000000 1.000000 0.000000
vn -0.000000 0.992055 0.125809
vn -0.000000 0.977453 0.211154
vn 0.000330 0.972636 -0.232334
vn 0.000330 0.972636 -0.232334
vn 0.000787 0.832252 -0.554396
vn 0.000787 0.832253 -0.554396
vn 0.000000 1.000000 0.000000
vn 0.000000 1.000000 0.000000
vn 0.000000 0.000000 1.000000
vn 0.000000 0.000000 1.000000
vn -1.000000 0.000000 0.000000
vn -1.000000 0.000000 0.000000
vn -1.000000 0.000000 0.000000
vn -0.000000 0.000000 1.000000
vn -0.000000 0.000000 1.000000
vn -0.000000 0.000000 1.000000
vn -0.000000 0.000000 1.000000
vn -1.000000 -0.000000 0.000000
vn -1.000000 -0.000000 0.000000
vn -1.000000 0.000000 0.000000
vn -1.000000 0.000000 0.000000
vn 0.000000 1.000000 0.000000
vn -0.000000 1.000000 0.000000
vn 0.000000 1.000000 0.000000
vn -0.000000 1.000000 0.000000
vn -1.000000 0.000000 0.000000
vn -1.000000 0.000000 0.000000
vn -1.000000 -0.000000 0.000000
vn -1.000000 -0.000000 0.000000
vn -1.000000 -0.000000 0.000000
vn -1.000000 -0.000000 0.000000
vn 0.000001 0.000000 1.000000
vn 0.000001 0.000000 1.000000
vn 0.000001 0.000000 1.000000
vn 0.000001 0.000000 1.000000
vn 0.000000 0.000000 1.000000
vn 0.000000 0.000000 1.000000
vn -0.000000 0.000000 1.000000
vn -0.000000 0.000000 1.000000
vn -0.000001 0.000000 1.000000
vn -0.000001 0.000000 1.000000
vn -0.000001 0.000000 1.000000
vn -0.000001 0.000000 1.000000
vn -1.000000 0.000000 0.000000
vn -1.000000 0.000000 0.000000
vn -1.000000 0.000000 0.000000
vn -1.000000 0.000000 0.000000
vn 0.000000 -1.000000 0.000000
vn 0.000000 -1.000000 0.000000
vn 0.000000 -1.000000 0.000000
vn 0.000000 -1.000000 0.000000
vn 0.000000 1.000000 0.000000
vn 0.000000 1.000000 0.000000
vn 0.000000 1.000000 0.000000
vn 0.000000 1.000000 0.000000
vn 0.000000 -1.000000 0.000000
vn 0.000000 -1.000000 0.000000
vn 0.000000 -1.000000 0.000000
vn 0.000000 -1.000000 0.000000
vn 1.000000 0.000000 0.000000
vn 1.000000 0.000000 0.000000
vn 1.000000 0.000000 0.000000
vn 1.000000 0.000000 0.000000
vn 0.000000 1.000000 0.000000
vn 0.000000 1.000000 0.000000
vn 0.000000 1.000000 0.000000
vn 0.000000 1.000000 0.000000
vn 0.000000 0.000000 -1.000000
vn 0.000000 0.000000 -1.000000
vn 0.000000 0.000000 -1.000000
vn 0.000000 0.000000 -1.000000
vn -1.000000 -0.000000 0.000000
vn -1.000000 -0.000000 0.000000
vn -1.000000 -0.000000 0.000000
vn -1.000000 -0.000000 0.000000
vn -0.000000 1.000000 -0.000000
vn -0.000000 1.000000 -0.000000
vn -0.000000 0.967535 -0.252737
vn -0.000000 0.967535 -0.252737
vn -0.000000 0.992055 -0.125809
vn -0.000000 0.977453 -0.211154
vn 0.000330 0.972636 0.232334
vn 0.000787 0.832253 0.554396
vn 0.000787 0.832252 0.554396
vn 0.000330 0.972636 0.232334
vn 0.000000 1.000000 0.000000
vn 0.000000 1.000000 0.000000
vn 0.000000 0.000000 -1.000000
vn 0.000000 0.000000 -1.000000
vn -1.000000 0.000000 -0.000000
vn -1.000000 0.000000 -0.000000
vn -1.000000 0.000000 -0.000000
vn -0.000000 0.000000 -1.000000
vn -0.000000 0.000000 -1.000000
vn -0.000000 0.000000 -1.000000
vn -0.000000 0.000000 -1.000000
vn -1.000000 -0.000000 0.000000
vn -1.000000 -0.000000 0.000000
vn 0.000000 1.000000 0.000000
vn -1.000000 0.000000 0.000000
vn -1.000000 -0.000000 0.000000
vn -1.000000 -0.000000 0.000000
vn -1.000000 -0.000000 0.000000
vn -1.000000 -0.000000 0.000000
vn 0.000001 0.000000 -1.000000
vn 0.000001 0.000000 -1.000000
vn 0.000001 0.000000 -1.000000
vn 0.000001 0.000000 -1.000000
vn -0.000000 0.000000 -1.000000
vn -0.000000 0.000000 -1.000000
vn -0.000000 0.000000 -1.000000
vn -0.000000 0.000000 -1.000000
vn -0.000001 0.000000 -1.000000
vn -0.000001 0.000000 -1.000000
vn -0.000001 0.000000 -1.000000
vn -0.000001 0.000000 -1.000000
vn -1.000000 0.000000 0.000000
vn -1.000000 0.000000 0.000000
vn -1.000000 0.000000 0.000000
vn -1.000000 0.000000 0.000000
vn 0.000000 -1.000000 0.000000
vn 0.000000 -1.000000 0.000000
vn 0.000000 -1.000000 0.000000
vn 0.000000 -1.000000 0.000000
vn 0.000000 1.000000 0.000000
vn 0.000000 1.000000 0.000000
vn 0.000000 1.000000 0.000000
vn 0.000000 1.000000 0.000000
vn 0.000000 -1.000000 0.000000
vn 0.000000 -1.000000 0.000000
vn 0.000000 -1.000000 0.000000
vn 0.000000 -1.000000 0.000000
vn 1.000000 0.000000 0.000000
vn 1.000000 0.000000 0.000000
vn 1.000000 0.000000 0.000000
vn 1.000000 0.000000 0.000000
vn 0.000000 1.000000 0.000000
vn 0.000000 1.000000 0.000000
vn 0.000000 1.000000 0.000000
vn 0.000000 1.000000 0.000000
vn 0.000000 -1.000000 0.000000
vn 0.000000 -1.000000 0.000000
vn 0.000000 -1.000000 0.000000
vn 0.000000 -1.000000 0.000000
vn 0.000000 -1.000000 0.000000
vn 0.000000 -1.000000 0.000000
vn 0.000000 -1.000000 0.000000
vn 0.000000 -1.000000 0.000000
vn 0.000000 -0.843436 0.537230
vn 0.000000 -0.843436 0.537230
vn 0.000000 -0.843436 0.537230
vn 0.000000 -0.843436 0.537230
vn 0.000000 -1.000000 -0.000000
vn 0.000000 -1.000000 -0.000000
vn 0.000000 -1.000000 -0.000000
vn 0.000000 -1.000000 -0.000000
vn 0.000000 -1.000000 0.000000
vn 0.000000 -1.000000 0.000000
vn 0.000000 -1.000000 0.000000
vn 0.000000 -1.000000 0.000000
vn 0.000000 -0.843436 -0.537230
vn 0.000000 -0.843436 -0.537230
vn 0.000000 -0.843436 -0.537230
vn 0.000000 -0.843436 -0.537230
vn 1.000000 -0.000000 0.000000
vn 1.000000 -0.000000 0.000000
vn 1.000000 -0.000000 0.000000
vn 1.000000 -0.000000 0.000000
vn 1.000000 -0.000000 0.000000
vn 1.000000 -0.000000 0.000000
vn 1.000000 -0.000000 0.000000
vn 1.000000 -0.000000 0.000000
vn 1.000000 0.000000 0.000000
vn 1.000000 0.000000 0.000000
vn 1.000000 0.000000 0.000000
vn 1.000000 0.000000 0.000000
vn 1.000000 0.000000 0.000000
vn 1.000000 0.000000 0.000000
vn 1.000000 0.000000 0.000000
vn 1.000000 0.000000 0.000000
vn 1.000000 0.000000 0.000000
vn 1.000000 0.000000 0.000000
vn 1.000000 0.000000 0.000000
vn 1.000000 0.000000 0.000000
vn 1.000000 -0.000000 0.000000
vn 1.000000 -0.000000 0.000000
vn 1.000000 -0.000000 0.000000
vn 1.000000 -0.000000 0.000000
s 1
g polySurface1 group2_pCube2
usemtl initialShadingGroup
f 28/1/1 29/2/2 30/3/3 31/4/4
s off
f 13/5/5 14/6/6 6/7/7 8/8/8
s 2
f 7/9/9 12/10/10 16/11/11 17/12/12
f 15/13/13 16/11/11 12/10/10 11/14/14
s 3
f 13/15/15 16/11/16 19/16/17 20/17/18
f 17/12/19 16/11/16 13/15/15 8/18/20
s 1
f 31/4/4 30/3/3 32/19/21 33/20/22
s off
f 16/11/23 15/13/24 19/16/25
f 15/13/26 10/21/27 20/17/28 19/16/29
s 4
f 2/22/30 21/23/31 20/24/32 10/25/33
s 2
f 10/21/34 15/13/13 3/26/35 2/27/36
f 4/28/37 3/26/35 15/13/13 11/14/14
s 4
f 20/24/32 21/23/31 1/29/38 9/30/39
s off
f 20/24/40 9/30/41 14/6/42 13/5/43
s 5
f 5/31/44 7/9/45 23/32/46 22/33/47
f 7/9/45 17/12/48 24/34/49 23/32/46
f 18/35/50 5/31/44 22/33/47 25/36/51
f 17/12/48 8/18/52 26/37/53 24/34/49
f 8/18/52 6/38/54 27/39/55 26/37/53
f 6/38/54 18/35/50 25/36/51 27/39/55
s off
f 22/33/56 23/32/57 29/2/58 28/1/59
f 23/32/60 24/34/61 30/3/62 29/2/63
f 25/36/64 22/33/65 28/1/66 31/4/67
f 24/34/68 26/37/69 32/19/70 30/3/71
f 26/37/72 27/39/73 33/20/74 32/19/75
f 27/39/76 25/36/77 31/4/78 33/20/79
s 6
f 56/40/80 59/41/81 58/42/82 57/43/83
s off
f 42/44/84 37/45/85 35/46/86 43/47/87
s 2
f 36/48/88 46/49/89 45/50/90 41/51/91
f 44/52/92 40/53/93 41/51/91 45/50/90
s 8
f 42/54/94 49/55/95 48/56/96 45/50/97
f 46/49/98 37/57/99 42/54/94 45/50/97
s 6
f 59/41/81 61/58/100 60/59/101 58/42/82
s off
f 45/50/102 48/56/103 44/52/104
f 44/52/105 48/56/106 49/55/107 39/60/108
s 4
f 2/61/30 39/62/109 49/63/110 21/64/31
s 2
f 39/60/111 2/65/36 3/66/35 44/52/92
f 4/28/37 40/53/93 44/52/92 3/66/35
s 4
f 49/63/110 38/67/112 1/68/38 21/64/31
s off
f 49/63/113 42/44/114 43/47/115 38/67/116
s 9
f 34/69/117 50/70/118 51/71/119 36/48/120
f 36/48/120 51/71/119 52/72/121 46/49/122
f 47/73/123 53/74/124 50/70/118 34/69/117
f 46/49/122 52/72/121 54/75/125 37/57/126
f 37/57/126 54/75/125 55/76/127 35/77/128
f 35/77/128 55/76/127 53/74/124 47/73/123
s off
f 50/70/129 56/40/130 57/43/131 51/71/132
f 51/71/133 57/43/134 58/42/135 52/72/136
f 53/74/137 59/41/138 56/40/139 50/70/140
f 52/72/141 58/42/142 60/59/143 54/75/144
f 54/75/145 60/59/146 61/58/147 55/76/148
f 55/76/149 61/58/150 59/41/151 53/74/152
f 6/78/153 14/79/154 62/80/155 5/81/156
f 9/82/157 1/83/158 63/84/159 64/85/160
f 14/86/161 9/87/162 64/85/163 62/80/164
f 43/88/165 35/89/166 34/90/167 65/91/168
f 1/92/169 38/93/170 66/94/171 63/84/172
f 38/95/173 43/96/174 65/97/175 66/94/176
f 12/10/177 7/9/178 5/81/179 62/80/180
f 11/14/181 12/10/182 62/80/183 64/85/184
f 4/28/185 11/14/186 64/85/187 63/84/188
f 40/53/189 4/28/190 63/84/191 66/94/192
f 36/48/193 41/51/194 65/91/195 34/90/196
f 41/51/197 40/53/198 66/94/199 65/97/200
g default
v -3.242388 4.063473 -8.155455
v -3.242388 4.063473 -7.797060
v -3.242388 3.373825 -0.000000
v 3.242388 3.373825 0.000000
v 3.242388 3.678731 0.000000
v -3.242388 3.678731 -0.000000
v 0.000000 3.678731 0.000000
v 0.000000 4.063473 -7.797060
v 0.000000 4.063473 -8.155455
v -0.000000 3.373825 0.000000
v 3.242388 3.373825 -7.316246
v 0.000000 3.373825 -7.316246
v -3.242388 3.373825 -7.316245
v -3.242388 3.678731 -7.316245
v 0.000000 3.678731 -7.316245
v 3.242388 3.678731 -7.316246
v -3.242388 8.455217 -8.155455
v -3.242388 8.455220 -7.797060
v 0.000000 8.455220 -7.797060
v 0.000000 8.455217 -8.155455
v -0.391302 3.678731 0.000000
v -0.391302 3.678731 -7.316245
v -0.391302 4.063473 -7.797060
v -0.391302 8.455220 -7.797060
v -0.391302 8.455217 -8.155455
v -0.391302 4.063473 -8.155455
v -0.391302 3.373825 -7.316246
v -0.391302 3.373825 0.000000
v -0.391302 8.455220 -7.316245
v 0.000000 8.455220 -7.316245
v -3.242388 4.063473 8.155455
v -3.242388 4.063473 7.797061
v 0.000000 4.063473 7.797061
v -0.000000 4.063473 8.155455
v 3.242388 3.373825 7.316246
v 0.000000 3.373825 7.316246
v -3.242388 3.373825 7.316245
v -3.242388 3.678731 7.316245
v 0.000000 3.678731 7.316245
v 3.242388 3.678731 7.316246
v -3.242388 8.455217 8.155455
v -3.242388 8.455220 7.797060
v 0.000000 8.455220 7.797060
v 0.000000 8.455217 8.155455
v -0.391302 3.678731 7.316245
v -0.391302 4.063473 7.797061
v -0.391302 8.455220 7.797060
v -0.391302 8.455217 8.155455
v -0.391302 4.063473 8.155455
v -0.391302 3.373825 7.316246
v -0.391302 8.455220 7.316245
v 0.000000 8.455220 7.316245
vt 0.375000 0.500000
vt 0.625000 0.500000
vt 0.734915 0.390085
vt 0.265085 0.390085
vt 0.234915 0.359915
vt 0.159574 0.140085
vt 0.159574 0.250000
vt 0.125000 0.250000
vt 0.840426 0.250000
vt 0.840426 0.140085
vt 0.765085 0.359915
vt 0.875000 0.250000
vt 0.375000 0.465426
vt 0.625000 0.465426
vt 0.625000 0.500000
vt 0.375000 0.500000
vt 0.159574 0.125000
vt 0.267287 0.392287
vt 0.250000 0.000000
vt 0.250000 0.125000
vt 0.250000 0.140085
vt 0.250000 0.250000
vt 0.375000 0.375000
vt 0.625000 0.375000
vt 0.750000 0.250000
vt 0.750000 0.140085
vt 0.732713 0.392287
vt 0.840426 0.125000
vt 0.750000 0.125000
vt 0.750000 0.000000
vt 0.625000 0.875000
vt 0.375000 0.875000
vt 0.250000 0.375000
vt 0.750000 0.375000
vt 0.734915 0.390085
vt 0.250000 0.375000
vt 0.750000 0.375000
vt 0.265085 0.390085
vt 0.765085 0.359915
vt 0.840426 0.140085
vt 0.840426 0.125000
vt 0.750000 0.375000
vt 0.375000 0.500000
vt 0.265085 0.390085
vt 0.734915 0.390085
vt 0.625000 0.500000
vt 0.234915 0.359915
vt 0.125000 0.250000
vt 0.159574 0.250000
vt 0.159574 0.140085
vt 0.840426 0.250000
vt 0.875000 0.250000
vt 0.765085 0.359915
vt 0.840426 0.140085
vt 0.375000 0.465426
vt 0.375000 0.500000
vt 0.625000 0.500000
vt 0.625000 0.465426
vt 0.159574 0.125000
vt 0.250000 0.125000
vt 0.250000 0.000000
vt 0.267287 0.392287
vt 0.250000 0.250000
vt 0.250000 0.140085
vt 0.375000 0.375000
vt 0.625000 0.375000
vt 0.750000 0.250000
vt 0.750000 0.140085
vt 0.732713 0.392287
vt 0.750000 0.000000
vt 0.750000 0.125000
vt 0.840426 0.125000
vt 0.375000 0.875000
vt 0.625000 0.875000
vt 0.750000 0.375000
vt 0.250000 0.375000
vt 0.734915 0.390085
vt 0.750000 0.375000
vt 0.250000 0.375000
vt 0.265085 0.390085
vt 0.765085 0.359915
vt 0.750000 0.375000
vt 0.840426 0.125000
vt 0.840426 0.140085
vn 0.000000 1.000000 -0.000009
vn 0.000000 1.000000 -0.000009
vn 0.000000 1.000000 -0.000009
vn 0.000000 1.000000 -0.000009
vn -0.000000 -0.772592 -0.634903
vn -0.000000 -0.996444 -0.084262
vn -0.000000 -0.996444 -0.084262
vn -0.000000 -0.772592 -0.634903
vn 0.000000 0.998785 0.049284
vn 0.000000 0.999046 0.043673
vn 0.000000 0.780798 0.624783
vn 0.000000 0.780798 0.624783
vn -1.000000 0.000000 0.000000
vn -1.000000 0.000000 0.000000
vn -1.000000 0.000001 0.000000
vn -1.000000 0.000001 0.000000
vn 0.000000 -0.999950 -0.010027
vn 0.000000 -1.000000 -0.000000
vn 0.000000 -1.000000 -0.000000
vn 0.000000 -1.000000 -0.000000
vn 0.000000 -1.000000 0.000000
vn 0.000000 -1.000000 0.000000
vn -1.000000 0.000000 0.000000
vn -1.000000 0.000000 0.000000
vn 0.000000 1.000000 0.000000
vn 0.000000 1.000000 0.000000
vn 0.000000 1.000000 0.000000
vn 0.000000 1.000000 0.000000
vn 0.000000 1.000000 0.000000
vn 0.000000 1.000000 0.000000
vn 1.000000 0.000000 0.000000
vn 1.000000 0.000000 0.000000
vn 1.000000 0.000000 0.000000
vn 1.000000 0.000000 0.000000
vn -0.000000 0.000001 -1.000000
vn -0.000000 0.000001 -1.000000
vn -0.000000 0.000001 -1.000000
vn -0.000000 0.000001 -1.000000
vn 1.000000 0.000000 0.000000
vn 1.000000 0.000000 0.000000
vn 1.000000 0.000000 0.000000
vn 1.000000 0.000000 0.000000
vn -1.000000 0.000000 0.000000
vn -1.000000 0.000000 0.000000
vn -1.000000 0.000000 0.000000
vn -1.000000 0.000000 0.000000
vn 0.000000 0.000000 1.000000
vn 0.000000 0.000000 1.000000
vn 0.000000 0.000000 1.000000
vn 0.000000 0.000000 1.000000
vn 1.000000 0.000000 0.000000
vn 1.000000 0.000000 0.000000
vn 1.000000 0.000000 0.000000
vn 1.000000 0.000000 0.000000
vn 0.000000 0.000000 -1.000000
vn 0.000000 0.000000 -1.000000
vn 0.000000 0.000000 -1.000000
vn 0.000000 0.000000 -1.000000
vn 0.000000 1.000000 0.000000
vn 0.000000 1.000000 0.000000
vn 0.000000 1.000000 0.000000
vn 0.000000 1.000000 0.000000
vn 0.000000 0.000000 1.000000
vn 0.000000 0.000000 1.000000
vn 0.000000 0.000000 1.000000
vn 0.000000 0.000000 1.000000
vn 0.000000 1.000000 -0.000009
vn 0.000000 1.000000 -0.000009
vn 0.000000 0.000000 -1.000000
vn 0.000000 0.000000 -1.000000
vn 0.000000 -0.772592 -0.634903
vn -1.000000 0.000000 0.000000
vn -1.000000 0.000000 0.000000
vn -1.000000 0.000000 0.000000
vn -1.000000 0.000000 0.000000
vn 0.000000 0.000000 1.000000
vn 0.000000 0.000000 1.000000
vn 0.000000 0.000000 1.000000
vn 0.000000 0.000000 1.000000
vn 1.000000 0.000000 0.000000
vn 1.000000 0.000000 0.000000
vn 1.000000 0.000000 0.000000
vn 1.000000 0.000000 0.000000
vn 0.000000 0.000000 -1.000000
vn 0.000000 0.000000 -1.000000
vn 0.000000 0.000000 -1.000000
vn 0.000000 0.000000 -1.000000
vn 0.000000 1.000000 0.000009
vn 0.000000 1.000000 0.000009
vn 0.000000 1.000000 0.000009
vn 0.000000 1.000000 0.000009
vn -0.000000 -0.772592 0.634903
vn -0.000000 -0.772592 0.634903
vn -0.000000 -0.996444 0.084262
vn -0.000000 -0.996444 0.084262
vn 0.000000 0.998785 -0.049284
vn 0.000000 0.780798 -0.624783
vn 0.000000 0.780798 -0.624783
vn 0.000000 0.999046 -0.043673
vn -1.000000 0.000000 0.000000
vn -1.000000 0.000001 0.000000
vn -1.000000 0.000001 0.000000
vn -1.000000 0.000000 0.000000
vn 0.000000 -0.999950 0.010027
vn 0.000000 -1.000000 0.000000
vn 0.000000 1.000000 0.000000
vn 0.000000 1.000000 0.000000
vn 1.000000 0.000000 0.000000
vn 1.000000 0.000000 0.000000
vn -0.000000 0.000001 1.000000
vn -0.000000 0.000001 1.000000
vn -0.000000 0.000001 1.000000
vn -0.000000 0.000001 1.000000
vn 1.000000 0.000000 0.000000
vn 1.000000 0.000000 0.000000
vn 1.000000 0.000000 0.000000
vn 1.000000 0.000000 0.000000
vn -1.000000 0.000000 0.000000
vn -1.000000 0.000000 0.000000
vn -1.000000 0.000000 0.000000
vn -1.000000 0.000000 0.000000
vn 0.000000 -0.000000 -1.000000
vn 0.000000 -0.000000 -1.000000
vn 0.000000 -0.000000 -1.000000
vn 0.000000 -0.000000 -1.000000
vn 1.000000 -0.000000 0.000000
vn 1.000000 -0.000000 0.000000
vn 1.000000 -0.000000 0.000000
vn 1.000000 -0.000000 0.000000
vn 0.000000 0.000000 1.000000
vn 0.000000 0.000000 1.000000
vn 0.000000 0.000000 1.000000
vn 0.000000 0.000000 1.000000
vn 0.000000 1.000000 0.000000
vn 0.000000 1.000000 0.000000
vn 0.000000 1.000000 0.000000
vn 0.000000 1.000000 0.000000
vn 0.000000 -0.000000 -1.000000
vn 0.000000 -0.000000 -1.000000
vn 0.000000 -0.000000 -1.000000
vn 0.000000 -0.000000 -1.000000
vn 0.000000 1.000000 0.000009
vn 0.000000 1.000000 0.000009
vn 0.000000 0.000000 1.000000
vn 0.000000 0.000000 1.000000
vn 0.000000 -0.772592 0.634903
vn -1.000000 0.000000 0.000000
vn -1.000000 0.000000 0.000000
vn -1.000000 0.000000 0.000000
vn -1.000000 0.000000 0.000000
vn 0.000000 0.000000 -1.000000
vn 0.000000 0.000000 -1.000000
vn 0.000000 0.000000 -1.000000
vn 0.000000 0.000000 -1.000000
vn 1.000000 0.000000 0.000000
vn 1.000000 0.000000 0.000000
vn 1.000000 0.000000 0.000000
vn 1.000000 0.000000 0.000000
vn 0.000000 0.000000 1.000000
vn 0.000000 0.000000 1.000000
vn 0.000000 0.000000 1.000000
vn 0.000000 0.000000 1.000000
s 1
g group2_pCube2 polySurface2
usemtl initialShadingGroup
f 83/98/201 84/99/202 90/100/203 91/101/204
s 2
f 92/102/205 93/103/206 79/104/207 67/105/208
s 3
f 80/106/209 88/107/210 89/108/211 68/109/212
s 4
f 79/110/213 80/111/214 68/112/215 67/113/216
s 2
f 78/114/217 77/115/218 70/116/219 76/117/220
f 79/104/207 93/103/206 94/118/221 69/119/222
s 4
f 69/120/223 72/121/224 80/111/214 79/110/213
s 3
f 72/122/225 87/123/226 88/107/210 80/106/209
f 82/124/227 81/125/228 73/126/229 71/127/230
s 6
f 77/115/231 82/124/232 71/128/233 70/129/234
s off
f 77/115/235 78/114/236 81/125/237 82/124/238
f 78/114/239 75/130/240 74/131/241 81/125/242
f 67/113/243 68/112/244 84/99/245 83/98/246
f 68/112/247 89/132/248 90/100/249 84/99/250
f 74/131/251 75/130/252 86/133/253 85/134/254
s 7
f 92/135/255 67/113/256 83/98/257 91/101/258
s 3
f 87/123/226 73/126/229 81/125/228 88/107/210
s off
f 90/136/259 95/137/260 96/138/261 85/139/262
f 90/100/263 89/132/264 74/131/265 85/134/266
s 1
f 91/101/204 90/100/203 85/134/267 86/133/268
s 7
f 75/130/269 92/135/255 91/101/258 86/133/270
s 2
f 75/130/271 78/114/217 93/103/206 92/102/205
f 94/118/221 93/103/206 78/114/217 76/117/220
s off
f 89/108/272 88/107/273 95/137/274 90/136/275
f 88/107/276 81/125/277 96/138/278 95/137/279
f 81/125/280 74/131/281 85/139/282 96/138/283
f 74/131/284 89/108/285 90/136/286 85/139/287
s 8
f 107/140/288 114/141/289 113/142/290 108/143/291
s 2
f 115/144/292 97/145/293 103/146/294 116/147/295
s 3
f 104/148/296 98/149/297 112/150/298 111/151/299
s 4
f 103/152/300 97/153/301 98/154/302 104/155/303
s 2
f 102/156/304 76/157/220 70/158/219 101/159/305
f 103/146/294 69/160/222 94/161/221 116/147/295
s 4
f 69/162/223 103/152/300 104/155/303 72/163/224
s 3
f 72/164/225 104/148/296 111/151/299 87/165/226
f 106/166/306 71/167/230 73/168/229 105/169/307
s 6
f 101/159/308 70/170/234 71/171/233 106/166/309
s off
f 101/159/310 106/166/311 105/169/312 102/156/313
f 102/156/314 105/169/315 99/172/316 100/173/317
f 97/153/318 107/140/319 108/143/320 98/154/321
f 98/154/322 108/143/323 113/142/324 112/174/325
f 99/172/326 109/175/327 110/176/328 100/173/329
s 9
f 115/177/330 114/141/331 107/140/332 97/153/333
s 3
f 87/165/226 111/151/299 105/169/307 73/168/229
s off
f 113/178/334 109/179/335 118/180/336 117/181/337
f 113/142/338 109/175/339 99/172/340 112/174/341
s 8
f 114/141/289 110/176/342 109/175/343 113/142/290
s 9
f 100/173/344 110/176/345 114/141/331 115/177/330
s 2
f 100/173/346 115/144/292 116/147/295 102/156/304
f 94/161/221 76/157/220 102/156/304 116/147/295
s off
f 112/150/347 113/178/348 117/181/349 111/151/350
f 111/151/351 117/181/352 118/180/353 105/169/354
f 105/169/355 118/180/356 109/179/357 99/172/358
f 99/172/359 109/179/360 113/178/361 112/150/362
